<?xml version="1.0" standalone="no"?>
<!DOCTYPE svg PUBLIC "-//W3C//DTD SVG 20010904//EN"
 "http://www.w3.org/TR/2001/REC-SVG-20010904/DTD/svg10.dtd">
<svg version="1.0" xmlns="http://www.w3.org/2000/svg"
 width="124.000000pt" height="124.000000pt" viewBox="0 0 124.000000 124.000000"
 preserveAspectRatio="xMidYMid meet">
<metadata>
Created by potrace 1.14, written by Peter Selinger 2001-2017
</metadata>
<g transform="translate(0.000000,124.000000) scale(0.100000,-0.100000)"
fill="#000000" stroke="none">
<path d="M542 1229 c-250 -30 -452 -210 -517 -459 -16 -61 -23 -238 -11 -258
3 -5 8 -24 11 -42 23 -129 135 -285 266 -370 102 -66 200 -92 344 -91 443 1
733 483 533 886 -88 178 -267 310 -448 330 -94 10 -117 11 -178 4z m274 -58
c86 -31 143 -68 219 -145 226 -228 224 -585 -5 -817 -115 -117 -242 -170 -404
-170 -173 0 -296 50 -415 170 -148 147 -204 342 -156 547 44 190 187 350 371
415 113 40 275 40 390 0z"/>
<path d="M482 1138 c-18 -18 -15 -45 8 -68 17 -17 20 -31 18 -77 -3 -53 -4
-56 -37 -67 -50 -16 -71 -51 -73 -119 -1 -31 -3 -57 -5 -57 -2 0 -17 25 -34
55 -30 53 -37 59 -70 56 -8 -1 -24 8 -34 19 -23 25 -47 26 -70 0 -38 -42 25
-100 66 -59 36 36 61 25 102 -49 21 -37 39 -80 40 -97 l2 -30 -65 -2 c-36 -1
-73 -2 -82 -2 -37 -2 -47 -27 -41 -107 5 -68 3 -77 -16 -95 -24 -22 -25 -32
-11 -60 13 -23 53 -25 74 -3 21 21 20 39 -3 61 -14 14 -20 36 -23 90 -3 42 0
77 6 83 5 5 44 10 86 10 l76 0 0 -65 c0 -46 -4 -65 -13 -65 -7 0 -22 -9 -33
-20 -17 -17 -20 -33 -20 -115 0 -54 -4 -95 -10 -95 -18 0 -31 -39 -21 -59 15
-27 41 -34 67 -16 29 19 31 48 5 72 -35 33 -19 213 18 213 4 0 7 -23 7 -50 1
-63 27 -101 76 -114 l35 -9 2 -68 c1 -43 -2 -69 -9 -69 -6 0 -13 7 -16 15 -7
18 -55 20 -72 3 -15 -15 -15 -51 0 -66 18 -18 42 -15 82 11 l35 22 1 78 0 77
29 0 c55 0 61 7 61 70 0 33 -4 61 -9 64 -4 3 -25 8 -45 10 -21 3 -43 9 -50 15
-16 13 -16 305 0 321 6 6 27 12 46 14 46 5 58 12 58 37 0 10 3 19 8 19 4 0 8
-38 8 -85 3 -167 6 -169 257 -181 71 -4 118 -2 136 6 27 11 59 62 55 88 -1 6
-2 23 -3 36 0 13 -13 35 -27 49 -21 21 -24 32 -19 56 15 69 -42 161 -101 161
-17 0 -24 6 -24 19 0 11 -14 34 -32 51 -29 29 -36 32 -81 27 -39 -3 -54 0 -68
14 -27 27 -54 24 -79 -8 -19 -25 -21 -38 -18 -125 2 -54 0 -98 -4 -98 -5 0 -8
13 -8 29 0 36 -16 48 -57 46 l-33 -2 0 63 c0 48 4 65 16 72 20 11 22 61 3 73
-20 12 -53 11 -67 -3z m48 -33 c0 -8 -7 -15 -15 -15 -16 0 -20 12 -8 23 11 12
23 8 23 -8z m187 -85 c-7 -59 14 -71 29 -18 18 61 99 65 127 7 15 -31 15 -32
-24 -69 -21 -20 -39 -44 -39 -53 0 -26 12 -20 42 17 53 66 126 54 149 -24 10
-33 9 -47 -6 -85 -18 -50 -15 -66 10 -45 27 22 51 -23 46 -85 -4 -43 -37 -56
-143 -54 l-98 1 20 34 c37 59 0 149 -58 142 -34 -4 -42 -28 -9 -28 37 0 61
-32 53 -73 -10 -52 -68 -76 -118 -50 -27 13 -28 17 -29 86 0 39 -3 127 -5 195
-5 131 0 152 39 152 18 0 19 -5 14 -50z m-127 -152 c0 -21 -4 -39 -10 -39 -5
-1 -18 -2 -27 -3 -36 -4 -60 -17 -70 -39 -7 -17 -11 -304 -4 -339 1 -9 57 -39
68 -37 35 6 43 -2 43 -41 l0 -40 -58 0 c-62 0 -101 22 -103 58 -1 23 -1 421 0
448 2 46 42 69 127 69 33 1 34 -1 34 -37z m-366 -26 c-22 -5 -31 7 -14 18 9 6
17 5 22 -3 4 -7 1 -13 -8 -15z m11 -431 c7 -12 -12 -24 -25 -16 -11 7 -4 25
10 25 5 0 11 -4 15 -9z m125 -190 c0 -18 -18 -21 -30 -6 -10 13 -9 15 9 15 11
0 21 -4 21 -9z m100 -77 c0 -9 -5 -14 -12 -12 -18 6 -21 28 -4 28 9 0 16 -7
16 -16z"/>
<path d="M532 728 c-16 -16 -16 -200 0 -216 15 -15 75 -16 84 0 9 14 10 189 1
211 -8 20 -67 23 -85 5z m60 -85 c4 -94 0 -113 -23 -113 -17 0 -19 8 -19 90 0
82 2 90 19 90 17 0 20 -9 23 -67z"/>
<path d="M654 549 c-17 -19 -19 -40 -21 -192 -1 -95 2 -182 7 -194 5 -12 20
-29 34 -38 24 -16 28 -16 69 4 24 12 49 33 55 47 10 21 15 23 31 14 70 -37
151 19 151 103 0 29 5 37 29 47 33 13 51 52 51 110 0 32 -5 40 -31 52 -16 8
-50 15 -75 14 -24 -1 -44 2 -44 6 0 5 -9 17 -20 28 -17 17 -33 20 -118 20 -88
0 -101 -2 -118 -21z m210 -25 c9 -8 16 -21 16 -27 -1 -35 -60 -70 -99 -60 -11
3 -28 2 -38 -1 -28 -11 0 -27 49 -29 50 -1 97 23 105 54 3 10 10 19 17 20 6 1
25 2 41 4 55 5 75 -10 75 -53 0 -44 -28 -80 -47 -61 -19 19 -31 1 -30 -48 0
-27 -3 -58 -7 -69 -8 -27 -57 -48 -91 -40 -28 7 -30 11 -39 67 -7 39 -50 94
-66 84 -5 -3 1 -23 16 -45 22 -33 26 -48 21 -82 -10 -75 -80 -114 -112 -64
-13 19 -16 51 -15 153 1 216 -1 213 111 213 57 0 82 -4 93 -16z"/>
</g>
</svg>
